<?xml version="1.0" encoding="UTF-8" standalone="no"?>
<!-- Created with Inkscape (http://www.inkscape.org/) -->

<svg
   width="512"
   height="512"
   viewBox="0 0 512 512"
   version="1.1"
   id="svg1"
   inkscape:version="1.3.2 (091e20e, 2023-11-25)"
   sodipodi:docname="gislaine_studio_logo.svg"
   xml:space="preserve"
   inkscape:export-filename="gislaine_studio_logo.png"
   inkscape:export-xdpi="96"
   inkscape:export-ydpi="96"
   xmlns:inkscape="http://www.inkscape.org/namespaces/inkscape"
   xmlns:sodipodi="http://sodipodi.sourceforge.net/DTD/sodipodi-0.dtd"
   xmlns="http://www.w3.org/2000/svg"
   xmlns:svg="http://www.w3.org/2000/svg"><sodipodi:namedview
     id="namedview1"
     pagecolor="#ffffff"
     bordercolor="#000000"
     borderopacity="0.25"
     inkscape:showpageshadow="false"
     inkscape:pageopacity="0.0"
     inkscape:pagecheckerboard="false"
     inkscape:deskcolor="#d1d1d1"
     inkscape:document-units="px"
     borderlayer="false"
     showborder="false"
     inkscape:clip-to-page="false"
     inkscape:zoom="0.96570754"
     inkscape:cx="199.85347"
     inkscape:cy="346.37816"
     inkscape:window-width="1920"
     inkscape:window-height="1052"
     inkscape:window-x="1920"
     inkscape:window-y="0"
     inkscape:window-maximized="0"
     inkscape:current-layer="layer1" /><defs
     id="defs1" /><g
     inkscape:label="Layer 1"
     inkscape:groupmode="layer"
     id="layer1"><path
       style="fill:#ff43a4;fill-opacity:1;stroke-width:1.5221"
       d="m 203.63098,509.26335 c -44.99447,-0.49939 -74.12625,-1.27076 -113.926063,-3.01658 -9.835102,-0.43142 -18.03887,-0.94126 -18.230592,-1.13298 -0.191721,-0.19173 1.166406,-0.34875 3.018032,-0.34895 1.851649,-1.9e-4 16.058179,-0.5013 31.570053,-1.11358 104.05378,-4.10718 205.51451,-4.11 304.90176,-0.01 14.67339,0.60553 28.5369,1.1058 30.80778,1.11169 2.27089,0.006 3.91927,0.22033 3.66308,0.47653 -0.70571,0.70571 -44.51685,2.39042 -85.16078,3.27476 -51.40919,1.11856 -102.05197,1.3635 -156.64327,0.75758 z m 54.3142,-13.59848 c -3.25854,-1.05143 -7.80865,-5.02371 -10.42524,-9.10134 -5.2421,-8.16907 -10.01735,-25.00523 -14.09581,-49.6978 -6.04122,-36.57562 -6.43929,-49.98286 -2.35199,-79.21565 2.97167,-21.25374 3.24135,-28.00957 1.43931,-36.05662 -1.92806,-8.60977 -5.23666,-14.58641 -11.72976,-21.18866 -7.21163,-7.33288 -12.85936,-10.13123 -28.96566,-14.35195 -15.49781,-4.06125 -24.29524,-8.36568 -31.44299,-15.38452 -2.82987,-2.77884 -5.14522,-5.40558 -5.14522,-5.83722 0,-1.07056 16.48264,-2.08179 32.01469,-1.96414 9.29165,0.0704 14.59522,0.50015 20.30228,1.64521 28.63956,5.74626 47.53013,25.70786 49.6872,52.50428 0.84452,10.49101 -0.12709,18.43022 -4.11017,33.5857 -6.34397,24.13852 -6.5946,25.542 -6.70344,37.53811 -0.0914,10.06591 0.0952,11.73322 2.08961,18.67522 3.68033,12.81038 4.31508,17.56525 5.03693,37.73161 0.88337,24.67847 1.88258,30.97611 5.53315,34.87313 2.18072,2.32796 3.29244,2.19094 10.49866,-1.2939 13.51939,-6.53783 17.25042,-5.98516 33.65515,4.98524 6.00929,4.01863 12.38381,8.16617 14.16558,9.21676 8.76324,5.16712 -1.11248,5.31414 -15.68353,0.2335 -4.89455,-1.70664 -10.96532,-3.30306 -13.49059,-3.54757 -4.34108,-0.42037 -4.99083,-0.24896 -11.91749,3.14393 -7.69584,3.76966 -13.88327,4.9514 -18.36067,3.50668 z m -27.06083,-27.71039 c -7.11794,-11.31496 -11.79878,-23.31012 -14.2953,-36.6332 -0.67553,-3.60503 -1.12333,-8.1925 -0.99511,-10.19441 l 0.23311,-3.63981 1.36175,5.33578 c 3.10992,12.18571 13.42559,41.59262 17.07106,48.66457 2.30671,4.47479 0.41918,2.49924 -3.37551,-3.53293 z M 150.87679,413.32827 C 119.63837,396.82109 89.630565,368.11859 69.737583,335.71853 54.970663,311.66739 43.081737,275.66956 40.118866,246.03763 c -1.083098,-10.83209 -1.085597,-33.89216 -0.0048,-43.96003 1.923841,-17.92049 7.362675,-39.71494 14.248497,-57.09652 11.879523,-29.98695 33.674198,-61.060342 57.497617,-81.976217 11.89361,-10.442059 14.26258,-12.271693 24.87934,-19.215137 25.47997,-16.664075 51.89179,-26.716294 83.70507,-31.857774 11.65595,-1.88378 42.51394,-2.3477923 54.14459,-0.81417 13.65381,1.800368 23.79794,3.997061 34.14189,7.393332 9.10448,2.989304 26.99048,11.021906 26.23173,11.780657 -0.2142,0.214208 -2.03557,-0.31614 -4.0475,-1.178561 -8.89551,-3.813052 -27.02704,-8.27964 -40.76847,-10.043033 -9.55887,-1.226648 -37.36318,-1.223848 -46.49752,0.0048 C 202.70756,24.581524 166.79178,39.722256 136.17143,64.383542 125.37171,73.08152 108.34058,90.84273 99.964335,102.14271 76.51613,133.7756 61.228699,171.72817 55.996492,211.29736 c -1.464513,11.0755 -1.234385,41.13608 0.39567,51.68315 5.672198,36.70165 18.442639,67.42026 39.673302,95.43196 16.064816,21.19589 37.437936,41.45023 58.209516,55.16247 4.70383,3.10523 6.24438,4.34114 5.33578,4.2807 -0.10489,-0.007 -4.03511,-2.04423 -8.73399,-4.52724 z m 37.76311,0.4473 C 166.28078,403.69227 145.74201,389.87882 129.02813,373.68341 96.290761,341.96154 75.429805,303.5856 68.336764,262.03519 c -2.910161,-17.04738 -2.792369,-39.40354 0.26932,-51.1191 0.950641,-3.6376 1.016169,-3.16871 1.437911,10.29045 0.534488,17.05691 2.024191,27.93579 5.89745,43.06738 3.724784,14.55156 7.954182,26.34803 13.93628,38.87051 12.181395,25.4996 25.491345,44.50233 44.335695,63.29855 17.99547,17.9495 33.46607,29.03647 56.92918,40.79817 7.61448,3.81703 9.05824,4.81926 9.05824,6.28807 0,2.02158 -1.31184,3.57832 -3.01091,3.57304 -0.64982,-10e-4 -4.49733,-1.49905 -8.55003,-3.32669 z m 196.4079,-9.90168 c -1.66829,-2.54615 -0.90619,-3.79152 4.82148,-7.87871 6.34927,-4.53074 22.01367,-20.03681 28.28726,-28.00136 17.9938,-22.84379 30.18141,-48.81929 36.54381,-77.88602 7.30518,-33.37382 6.76487,-62.24815 -1.76786,-94.47263 -7.36162,-27.80177 -18.30553,-49.34919 -36.76089,-72.37833 -7.1372,-8.90601 -20.2864,-22.384 -26.77172,-27.441153 -3.75217,-2.925876 -5.16307,-5.716918 -2.88996,-5.716918 3.83174,0 32.69685,26.249101 43.58757,39.637241 20.82905,25.60555 34.70677,56.36023 40.83675,90.49908 1.53117,8.52738 1.74994,12.24748 1.76049,29.93712 0.0122,21.52565 -0.66919,28.14024 -4.59922,44.6051 -3.53234,14.79867 -7.34828,25.2144 -14.34832,39.16411 -11.26827,22.45545 -27.50889,42.76528 -46.21316,57.79228 -9.22687,7.41284 -18.70549,13.93841 -20.24603,13.93841 -0.58409,0 -1.59217,-0.80919 -2.2402,-1.79822 z m -168.32284,-9.0241 c -7.09211,-14.49645 -10.42963,-32.37251 -8.89657,-47.65106 0.45386,-4.52313 1.11851,-9.42442 1.47703,-10.89177 1.83866,-7.52543 1.84408,-7.21609 -0.10441,-5.95079 -0.96733,0.62818 -4.15988,1.96681 -7.09456,2.97476 -4.84813,1.66517 -6.52006,1.82798 -18.2941,1.78167 -11.81855,-0.0465 -13.54829,-0.23153 -19.66571,-2.10377 -14.44262,-4.42017 -26.11017,-11.56291 -37.5318,-22.97658 -12.20887,-12.20032 -20.14078,-25.16153 -24.40651,-39.88167 -1.95546,-6.74795 -2.457699,-10.83047 -0.76882,-6.24964 2.96565,8.04386 11.14919,21.763 17.93642,30.06919 12.11108,14.8215 30.54581,27.27576 46.29359,31.27532 14.5134,3.68607 33.39715,3.39936 45.25829,-0.68711 2.8357,-0.97699 3.05755,-0.96025 2.57815,0.1946 -0.2885,0.69496 -0.70025,7.09483 -0.91499,14.22191 -0.45778,15.19441 0.58599,24.92064 5.11215,47.63629 1.62841,8.17263 2.85501,14.96509 2.72576,15.09433 -0.12922,0.12923 -1.79601,-2.95582 -3.70395,-6.85568 z m 48.38161,-73.00504 c 3.01387,-5.4085 8.05586,-10.47443 12.68978,-12.74999 3.87942,-1.90506 5.12549,-2.12755 11.58824,-2.06905 6.1449,0.0555 8.2733,0.43841 14.05592,2.52799 3.74796,1.35432 7.43537,2.79472 8.19424,3.20084 2.47748,1.32593 1.47698,0.0544 -4.9955,-6.34818 -7.45249,-7.3721 -11.41361,-14.33627 -12.78799,-22.48285 -1.58596,-9.40073 1.04611,-16.71839 7.48125,-20.79945 5.68539,-3.60557 9.68577,-3.68618 18.16114,-0.36606 2.51525,0.98533 -4.23605,-5.68048 -7.41573,-7.32181 -14.49504,-7.4822 -36.99657,-2.53866 -43.18223,9.48705 -3.74668,7.28405 -1.69735,17.58973 4.68303,23.54989 1.262,1.17888 2.12554,2.31242 1.91897,2.51898 -0.6643,0.6643 -9.52129,-1.72766 -13.25611,-3.58001 -5.07301,-2.51604 -11.45613,-8.57071 -13.87277,-13.15893 -1.80053,-3.41849 -2.04469,-4.74455 -2.04792,-11.12264 -0.004,-6.75871 0.17213,-7.58616 2.6336,-12.41338 12.45239,-24.42053 48.69918,-28.2513 68.32512,-7.22098 8.58164,9.19574 11.36555,18.92323 9.48404,33.13893 -1.16703,8.81742 -0.81377,10.48095 3.46301,16.30708 3.21874,4.38481 2.7935,5.7226 -2.06609,6.49968 -2.43453,0.3893 -2.95003,0.77844 -2.95003,2.22694 0,1.23449 -0.50879,1.83282 -1.71506,2.01687 -1.66861,0.25459 -1.71788,0.49835 -0.77455,3.8326 0.25719,0.90905 -0.24669,1.55617 -1.61743,2.07735 -1.69637,0.64495 -1.99097,1.21602 -1.99097,3.85948 0,3.63169 -2.62193,6.84452 -5.58567,6.84452 -1.01405,0 -5.87356,-1.22165 -10.79895,-2.71478 -4.92539,-1.49313 -10.59073,-2.9085 -12.58966,-3.14524 -6.60424,-0.78218 -16.10769,2.43822 -23.21904,7.86815 l -3.60417,2.75198 z m -76.97633,-3.99608 c -36.58328,-2.82267 -71.54536,-34.12582 -82.94085,-74.2607 -2.71457,-9.56076 -2.78562,-10.14494 -2.86097,-23.52482 -0.0717,-12.71903 0.0731,-14.25862 1.9846,-21.09159 9.4498,-33.78189 35.96855,-61.68364 79.11821,-83.2444 20.68309,-10.33482 31.87978,-14.27637 68.40899,-24.08197 23.70264,-6.362535 34.89583,-9.957384 47.59579,-15.286031 22.28348,-9.349703 54.79647,-27.419533 75.22646,-41.808816 17.85993,-12.579142 27.12108,-18.487069 34.77719,-22.185277 21.05331,-10.1696459 46.95776,-13.28198827 48.8192,-5.8654694 1.11508,4.4428844 -4.1119,9.6866474 -15.75984,15.8104474 -9.48919,4.988825 -13.14175,8.802482 -14.42697,15.063229 -1.94337,9.466916 -3.02853,12.285357 -5.88185,15.276737 -4.82163,5.054897 -10.26335,5.793865 -20.00474,2.716545 -5.10293,-1.61201 -6.03449,-2.142092 -5.3063,-3.019492 0.48579,-0.585327 1.53528,-1.271186 2.33226,-1.524127 0.79695,-0.252953 2.94668,-2.410073 4.77718,-4.793616 5.67702,-7.392247 9.78022,-15.667554 6.1752,-12.454156 -0.39827,0.355017 -3.63976,1.794208 -7.2033,3.198189 -13.33503,5.253824 -22.69544,11.059433 -44.99772,27.908976 -19.46633,14.706992 -28.32867,19.708274 -43.42377,24.505353 -10.70761,3.402778 -17.47475,4.603801 -33.06365,5.868132 -7.71959,0.626088 -17.24461,1.784443 -21.16671,2.574081 -8.4353,1.698323 -19.90074,4.726635 -19.48175,5.145625 0.16235,0.16233 3.69368,-0.0647 7.8474,-0.50453 4.15373,-0.43982 10.12485,-0.60056 13.26913,-0.35718 8.21787,0.6361 25.15441,3.53242 25.15441,4.30165 0,0.3591 -0.99128,0.65291 -2.20285,0.65291 -7.12504,0 -29.92549,6.45583 -45.69725,12.93894 -46.39463,19.07087 -83.31333,49.89426 -100.30594,83.74531 -3.40664,6.7864 -7.77156,19.68574 -8.42418,24.89534 -0.81024,6.46803 -1.1899,7.7546 -1.90877,6.46838 -1.18667,-2.12319 -2.98974,-10.26558 -3.85111,-17.39106 -2.55256,-21.11534 7.16608,-47.53258 24.57674,-66.80461 l 4.79995,-5.31311 -3.74406,2.64522 c -15.71955,11.10605 -27.77926,28.57265 -32.89625,47.64505 -1.71146,6.3791 -2.03919,9.18294 -2.04606,17.50504 -0.0157,18.94733 5.78876,36.40039 17.61846,52.97669 12.13817,17.00855 25.85876,27.28292 47.80748,35.79956 5.41675,2.10184 11.71581,4.75948 13.99789,5.90585 5.24951,2.63704 11.66026,7.66897 11.27214,8.84771 -0.40519,1.23053 -9.30968,1.78372 -17.96379,1.11599 z m -35.12567,-73.24289 c -0.32604,-30.53385 31.36776,-69.38649 65.33916,-80.09764 8.56291,-2.69988 9.68267,-2.50979 4.29876,0.72977 -8.85205,5.32641 -10.24559,7.79764 -10.24559,18.16914 0,13.30057 -3.12758,21.73478 -11.02099,29.7206 -5.84606,5.91448 -12.85983,9.61177 -23.95817,12.62943 -9.91531,2.696 -11.9917,3.65082 -16.19263,7.44609 -3.61132,3.26262 -5.6428,6.97685 -7.09657,12.97491 l -1.06047,4.37525 z m 84.25341,1.3337 c -8.63129,-11.30409 -5.12161,-26.15348 7.66991,-32.45125 3.06624,-1.50962 4.81422,-1.80454 10.53639,-1.77771 5.94039,0.0279 7.37135,0.30529 10.67157,2.06907 4.83756,2.58543 6.72176,4.11017 9.1254,7.38448 2.501,3.40695 2.43371,3.85374 -0.58046,3.85374 -3.85554,0 -11.01825,2.06344 -17.07136,4.91792 -8.29013,3.9094 -14.23429,9.97896 -16.64759,16.99881 l -0.91401,2.65868 z m 160.56459,-31.78379 c -0.41307,-0.52406 -2.36534,-4.10431 -4.33834,-7.95613 -1.973,-3.85181 -4.97744,-8.5826 -6.67651,-10.51286 -4.67603,-5.31226 -7.57283,-6.46185 -18.13156,-7.19553 -10.62837,-0.73851 -13.46497,-2.01579 -15.97037,-7.19126 -3.26412,-6.74276 -0.84605,-17.13438 4.19911,-18.04563 1.83987,-0.33232 1.98379,-0.49758 0.82969,-0.95281 -2.9288,-1.15528 -19.23452,-0.50032 -32.36501,1.3 -7.42415,1.01794 -16.07107,2.06513 -19.21538,2.3271 -7.25426,0.60441 -20.22472,-0.62099 -28.37463,-2.68074 -6.00706,-1.51817 -21.44679,-8.47668 -22.46545,-10.1249 -0.30895,-0.49991 0.0409,-0.55912 0.97793,-0.16554 0.80245,0.33706 4.50568,1.40746 8.22939,2.37868 16.73724,4.36539 28.17836,5.11388 58.78346,3.84569 23.76823,-0.98491 32.47957,0.49288 49.16541,8.34038 l 5.71692,2.68871 -2.66789,-2.43523 c -5.92742,-5.41053 -17.24104,-11.72189 -24.53156,-13.68502 -7.4695,-2.01132 -16.62738,-3.03838 -33.71129,-3.7807 -10.10003,-0.43887 -21.86409,-1.31464 -26.14233,-1.94615 -9.46506,-1.39715 -24.77343,-5.4927 -34.44904,-9.21637 l -7.16396,-2.75708 2.97157,-1.82687 c 1.63435,-1.00478 5.88717,-3.27377 9.4507,-5.04222 6.16203,-3.05796 6.79631,-3.21116 12.95834,-3.12992 7.16232,0.0944 37.99548,5.58001 52.7569,9.38609 26.71555,6.88831 41.95099,14.66901 54.67447,27.92206 12.00967,12.50956 17.40038,23.94121 19.85483,42.10452 0.46986,3.47691 0.64126,6.99281 0.3809,7.81311 -0.53812,1.69546 -3.56376,2.03882 -4.7463,0.53862 z M 295.86376,113.0184 c 31.99914,-11.11987 44.15124,-18.517509 68.9582,-41.978545 10.10581,-9.557502 24.25612,-21.340561 25.62793,-21.340561 0.34757,0 -0.75358,1.457802 -2.44702,3.239578 -1.69343,1.781764 -7.33883,8.688407 -12.54534,15.348096 -16.80452,21.494805 -27.70697,31.620132 -41.86218,38.878242 -12.25621,6.28438 -23.06773,8.87026 -36.8286,8.80859 l -9.28779,-0.0418 z"
       id="path8" /></g></svg>
