<?xml version="1.0" encoding="UTF-8" standalone="no"?>
<!-- Created with Inkscape (http://www.inkscape.org/) -->

<svg
   width="512"
   height="512"
   viewBox="0 0 512 512"
   version="1.1"
   id="svg1"
   inkscape:version="1.3.2 (091e20e, 2023-11-25)"
   sodipodi:docname="gislaine_studio_logo_texto.svg"
   xml:space="preserve"
   inkscape:export-filename="gislaine_studio_logo_texto.png"
   inkscape:export-xdpi="96"
   inkscape:export-ydpi="96"
   xmlns:inkscape="http://www.inkscape.org/namespaces/inkscape"
   xmlns:sodipodi="http://sodipodi.sourceforge.net/DTD/sodipodi-0.dtd"
   xmlns="http://www.w3.org/2000/svg"
   xmlns:svg="http://www.w3.org/2000/svg"><sodipodi:namedview
     id="namedview1"
     pagecolor="#ffffff"
     bordercolor="#000000"
     borderopacity="0.25"
     inkscape:showpageshadow="false"
     inkscape:pageopacity="0.0"
     inkscape:pagecheckerboard="false"
     inkscape:deskcolor="#d1d1d1"
     inkscape:document-units="px"
     borderlayer="false"
     showborder="false"
     inkscape:clip-to-page="false"
     inkscape:zoom="1.3050296"
     inkscape:cx="227.58104"
     inkscape:cy="227.96418"
     inkscape:window-width="1920"
     inkscape:window-height="1052"
     inkscape:window-x="1920"
     inkscape:window-y="0"
     inkscape:window-maximized="0"
     inkscape:current-layer="layer1" /><defs
     id="defs1" /><g
     inkscape:label="Layer 1"
     inkscape:groupmode="layer"
     id="layer1"><g
       id="g1"
       transform="matrix(1.1574004,0,0,1.1574004,-40.294503,-1.8225054)"><path
         style="fill:#ff43a4;fill-opacity:1"
         d="m 221.59423,348.99318 c -29.5608,-0.32809 -48.70002,-0.83487 -74.848,-1.98185 -6.46154,-0.28344 -11.85131,-0.6184 -11.97727,-0.74436 -0.12596,-0.12596 0.76631,-0.22912 1.98281,-0.22925 1.21651,-1.3e-4 10.55002,-0.32935 20.74113,-0.73161 68.36204,-2.69837 135.02047,-2.70022 200.31665,-0.006 9.64024,0.39783 18.74839,0.7265 20.24033,0.73037 1.49195,0.004 2.57491,0.14475 2.4066,0.31307 -0.46365,0.46365 -29.24702,1.57048 -55.94957,2.15148 -33.7752,0.73488 -67.04687,0.8958 -102.91268,0.49772 z m 35.68375,-8.93403 c -2.14082,-0.69077 -5.13018,-3.30051 -6.84925,-5.97946 -3.44399,-5.36699 -6.58127,-16.42813 -9.26077,-32.65084 -3.969,-24.02973 -4.23053,-32.83812 -1.54523,-52.04369 1.95235,-13.96345 2.12953,-18.40194 0.94561,-23.68875 -1.26671,-5.65651 -3.44042,-9.58309 -7.7063,-13.92069 -4.73795,-4.81761 -8.44844,-6.65609 -19.03008,-9.42905 -10.18187,-2.66819 -15.96167,-5.49615 -20.65766,-10.10744 -1.85919,-1.82566 -3.38034,-3.5514 -3.38034,-3.83498 0,-0.70334 10.82889,-1.36771 21.03325,-1.29042 6.1045,0.0462 9.58888,0.32859 13.33835,1.08089 18.81583,3.77522 31.2267,16.88974 32.64387,34.49465 0.55484,6.89247 -0.0835,12.10843 -2.70033,22.06539 -4.16791,15.8587 -4.33257,16.78078 -4.40408,24.66207 -0.06,6.61318 0.0626,7.70858 1.37285,12.26939 2.41793,8.41626 2.83495,11.54015 3.3092,24.78919 0.58036,16.21345 1.23683,20.35092 3.63521,22.91122 1.43271,1.52944 2.16309,1.43942 6.89749,-0.85008 8.88207,-4.29527 11.33331,-3.93218 22.11101,3.27524 3.94803,2.64019 8.13601,5.36507 9.30661,6.0553 5.75734,3.39473 -0.73088,3.49132 -10.30388,0.1534 -3.21566,-1.12124 -7.20408,-2.17006 -8.86315,-2.33071 -2.85204,-0.27617 -3.27891,-0.16356 -7.82965,2.06553 -5.05606,2.47662 -9.12113,3.253 -12.06273,2.30384 z m -17.77862,-18.20538 c -4.6764,-7.43379 -7.75166,-15.31446 -9.39184,-24.06756 -0.44381,-2.36845 -0.73801,-5.38236 -0.65377,-6.69759 l 0.15315,-2.39131 0.89465,3.50554 c 2.04318,8.00585 8.82045,27.32583 11.21548,31.97201 1.51547,2.93988 0.27539,1.64197 -2.21767,-2.32109 z m -52.56397,-35.88874 c -20.52325,-10.84501 -40.23801,-29.7022 -53.30745,-50.98863 -9.70168,-15.8013 -17.51256,-39.45142 -19.45913,-58.91923 -0.71158,-7.11655 -0.71322,-22.26673 -0.003,-28.8812 1.26394,-11.77353 4.83718,-26.09221 9.36108,-37.51169 7.8047,-19.701064 22.12353,-40.115894 37.77522,-53.857364 7.81395,-6.8603 9.37034,-8.06235 16.34542,-12.6241 16.74002,-10.94809 34.09226,-17.552276 54.99318,-20.930166 7.65782,-1.23762 27.93113,-1.54247 35.57232,-0.5349 8.97038,1.18282 15.63495,2.62602 22.4308,4.85733 5.98153,1.963936 17.73241,7.241256 17.23392,7.739746 -0.14073,0.14073 -1.33735,-0.2077 -2.65916,-0.7743 -5.84424,-2.50513 -17.75643,-5.43962 -26.78438,-6.59815 -6.28005,-0.805896 -24.54714,-0.804056 -30.54829,0.003 -26.89822,3.61773 -50.49444,13.565 -70.61162,29.76716 -7.09528,5.71446 -18.28453,17.38336 -23.78761,24.8073 -15.40518,20.782424 -25.44883,45.716794 -28.88633,71.713254 -0.96216,7.27646 -0.81097,27.02589 0.25995,33.95518 3.72657,24.11253 12.11659,44.29427 26.06487,62.69761 10.55438,13.92544 24.59625,27.23228 38.24292,36.24106 3.09036,2.04009 4.10248,2.85207 3.50554,2.81236 -0.0689,-0.005 -2.65101,-1.34303 -5.73812,-2.97434 z m 24.80989,0.29387 c -14.68966,-6.6246 -28.18338,-15.69986 -39.16419,-26.34005 -21.50804,-20.84087 -35.21343,-46.05338 -39.87347,-73.35148 -1.91194,-11.19992 -1.83455,-25.88764 0.17694,-33.58461 0.62456,-2.38986 0.66761,-2.08181 0.94469,6.76069 0.35115,11.20618 1.32987,18.35346 3.87455,28.29473 2.44714,9.5602 5.2258,17.31033 9.15596,25.53744 8.00303,16.75292 16.7475,29.23748 29.128,41.58636 11.8228,11.7926 21.98679,19.0766 37.40176,26.80389 5.00262,2.50774 5.95115,3.16619 5.95115,4.13118 0,1.32816 -0.86186,2.35092 -1.97813,2.34744 -0.42692,-10e-4 -2.95469,-0.98485 -5.61726,-2.18559 z m 129.03754,-6.50528 c -1.09605,-1.67279 -0.59535,-2.49098 3.16766,-5.17621 4.17139,-2.97664 14.4627,-13.16394 18.58437,-18.39655 11.8217,-15.00808 19.82881,-32.07366 24.00883,-51.17014 4.79941,-21.92618 4.44443,-40.89626 -1.16146,-62.06734 -4.8365,-18.26542 -12.02651,-32.4218 -24.15145,-47.551664 -4.68905,-5.85114 -13.32791,-14.70601 -17.58869,-18.0285 -2.46513,-1.92226 -3.39207,-3.75594 -1.89866,-3.75594 2.5174,0 21.48142,17.24533 28.63648,26.04117 13.68443,16.822534 22.80192,37.027974 26.82924,59.456774 1.00596,5.60238 1.14969,8.04644 1.15662,19.66831 0.008,14.14209 -0.43965,18.48779 -3.02163,29.305 -2.3207,9.72254 -4.82773,16.56555 -9.42667,25.73033 -7.40311,14.75295 -18.07299,28.09626 -30.36147,37.96881 -6.06193,4.87014 -12.28927,9.15736 -13.30139,9.15736 -0.38373,0 -1.04603,-0.53163 -1.47178,-1.18141 z M 230.19681,273.8249 c -4.65943,-9.52398 -6.85213,-21.26834 -5.84493,-31.30615 0.29818,-2.97164 0.73485,-6.19173 0.97039,-7.15576 1.20798,-4.94411 1.21154,-4.74088 -0.0686,-3.90959 -0.63553,0.4127 -2.733,1.29217 -4.66104,1.95438 -3.18517,1.09399 -4.2836,1.20096 -12.019,1.17053 -7.76464,-0.0305 -8.90106,-0.15211 -12.92012,-1.38215 -9.48862,-2.90399 -17.15406,-7.59669 -24.65793,-15.09532 -8.02107,-8.01546 -13.23224,-16.53082 -16.03477,-26.20176 -1.28472,-4.43333 -1.61468,-7.11549 -0.5051,-4.10594 1.94839,5.28472 7.32487,14.29802 11.784,19.75508 7.95683,9.73754 20.06822,17.91984 30.41431,20.5475 9.53512,2.4217 21.94151,2.23334 29.73413,-0.45143 1.86302,-0.64187 2.00877,-0.63087 1.69381,0.12786 -0.18954,0.45658 -0.46005,4.66121 -0.60113,9.34361 -0.30076,9.98254 0.38499,16.37255 3.35861,31.29645 1.06985,5.36932 1.87571,9.83188 1.7908,9.91679 -0.0849,0.0849 -1.17996,-1.94194 -2.43345,-4.5041 z m 31.78612,-47.9634 c 1.98007,-3.55332 5.2926,-6.88157 8.33702,-8.37659 2.54874,-1.2516 3.36739,-1.39777 7.61334,-1.35933 4.03712,0.0365 5.43545,0.28803 9.23456,1.66085 2.46236,0.88978 4.88494,1.8361 5.38351,2.10292 1.62768,0.87111 0.97036,0.0358 -3.28198,-4.17068 -4.89619,-4.84338 -7.4986,-9.41875 -8.40155,-14.77095 -1.04195,-6.17616 0.68728,-10.98378 4.91509,-13.66498 3.73523,-2.36881 6.36343,-2.42178 11.93164,-0.2405 1.65249,0.64735 -2.78303,-3.732 -4.87204,-4.81033 -9.52306,-4.91572 -24.30629,-1.66788 -28.37019,6.23287 -2.46152,4.78553 -1.11513,11.55623 3.07669,15.47198 0.82912,0.77451 1.39646,1.51923 1.26075,1.65494 -0.43644,0.43644 -6.25537,-1.13505 -8.70911,-2.35202 -3.3329,-1.65301 -7.52653,-5.63085 -9.11423,-8.64525 -1.18293,-2.24591 -1.34334,-3.11711 -1.34546,-7.30744 -0.002,-4.44039 0.11309,-4.98402 1.73024,-8.15544 8.18107,-16.04398 31.99476,-18.56075 44.88875,-4.74409 5.63804,6.04149 7.46703,12.43232 6.2309,21.77186 -0.76673,5.79294 -0.53463,6.88586 2.27515,10.71355 2.11468,2.88077 1.8353,3.75968 -1.35739,4.27021 -1.59945,0.25577 -1.93813,0.51143 -1.93813,1.46307 0,0.81105 -0.33427,1.20414 -1.12678,1.32506 -1.09625,0.16726 -1.12862,0.32741 -0.50887,2.51797 0.16897,0.59723 -0.16207,1.02239 -1.06263,1.36479 -1.11449,0.42373 -1.30804,0.79892 -1.30804,2.53564 0,2.38597 -1.72258,4.49676 -3.66972,4.49676 -0.66621,0 -3.85885,-0.80261 -7.09477,-1.78358 -3.23592,-0.98097 -6.95798,-1.91084 -8.27125,-2.06638 -4.3389,-0.51388 -10.58255,1.60188 -15.25462,5.16927 l -2.36789,1.80802 z m -50.57249,-2.62538 c -24.03476,-1.85445 -47.00441,-22.42023 -54.4911,-48.78835 -1.78345,-6.2813 -1.83012,-6.6651 -1.87963,-15.45551 -0.0471,-8.35625 0.0481,-9.36774 1.30386,-13.85691 6.2084,-22.19428 23.63089,-40.52539 51.97968,-54.690544 13.58853,-6.78984 20.94461,-9.37939 44.94385,-15.82155 15.57234,-4.18011 22.92613,-6.54188 31.26984,-10.04273 14.63997,-6.14264 36.0006,-18.01429 49.42285,-27.46787 11.73375,-8.26434 17.81821,-12.145776 22.84818,-14.575456 13.83176,-6.68133 30.85066,-8.7261 32.0736,-3.85354 0.7326,2.91892 -2.70146,6.36401 -10.35402,10.387266 -6.23427,3.2776 -8.63396,5.78312 -9.47833,9.89636 -1.27677,6.21964 -1.98971,8.07132 -3.86431,10.03662 -3.16775,3.32101 -6.74289,3.8065 -13.14286,1.78474 -3.35256,-1.05907 -3.96458,-1.40733 -3.48617,-1.98377 0.31915,-0.38455 1.00866,-0.83515 1.53226,-1.00133 0.52359,-0.16619 1.93594,-1.58339 3.13855,-3.14935 3.72973,-4.85661 6.42548,-10.29339 4.05703,-8.18222 -0.26166,0.23324 -2.39128,1.17877 -4.73248,2.10117 -8.76095,3.45169 -14.91062,7.26591 -29.56294,18.33585 -12.78914,9.66231 -18.61158,12.94809 -28.52888,16.09971 -7.03476,2.23558 -11.48069,3.02464 -21.7224,3.85529 -5.07167,0.41133 -11.32949,1.17235 -13.90627,1.69114 -5.54188,1.11577 -13.07453,3.10534 -12.79926,3.38061 0.10666,0.10665 2.4267,-0.0425 5.15564,-0.33147 2.72895,-0.28896 6.6519,-0.39456 8.71766,-0.23466 5.39903,0.4179 16.52613,2.32075 16.52613,2.82613 0,0.23592 -0.65126,0.42895 -1.44725,0.42895 -4.68106,0 -19.66067,4.2414 -30.02252,8.50072 -30.48069,12.529324 -54.73582,32.779914 -65.89975,55.019634 -2.23812,4.45858 -5.10582,12.93328 -5.53458,16.35592 -0.53232,4.24942 -0.78175,5.09468 -1.25404,4.24965 -0.77963,-1.39491 -1.96422,-6.74436 -2.53013,-11.42571 -1.677,-13.87252 4.70802,-31.22831 16.14661,-43.8898 l 3.15351,-3.49065 -2.4598,1.73788 c -10.32755,7.29654 -18.25063,18.77188 -21.61243,31.3022 -1.12441,4.191 -1.33972,6.03308 -1.34423,11.5006 -0.0103,12.44816 3.80314,23.9146 11.5751,34.80502 7.97463,11.17441 16.98889,17.92454 31.40892,23.51987 3.55874,1.38088 7.69714,3.12692 9.19644,3.88007 3.44886,1.7325 7.66065,5.03841 7.40565,5.81283 -0.2662,0.80845 -6.11634,1.17188 -11.80198,0.73319 z m -23.07713,-48.11966 c -0.2142,-20.06036 20.60823,-45.58606 42.92701,-52.62315 5.62573,-1.77379 6.3614,-1.6489 2.82424,0.47945 -5.81569,3.49938 -6.73123,5.12295 -6.73123,11.9369 0,8.73831 -2.05478,14.27948 -7.24065,19.52606 -3.84079,3.88574 -8.44875,6.31481 -15.74022,8.29738 -6.51423,1.77124 -7.8784,2.39854 -10.63835,4.89199 -2.3726,2.1435 -3.70726,4.5837 -4.66237,8.52435 l -0.69671,2.87449 z m 55.35344,0.87622 c -5.67065,-7.42664 -3.36483,-17.18251 5.03904,-21.32006 2.01448,-0.9918 3.16288,-1.18556 6.92227,-1.16793 3.90277,0.0183 4.84289,0.20057 7.01109,1.35935 3.17822,1.69859 4.41612,2.70033 5.99528,4.85151 1.64312,2.23832 1.59891,2.53186 -0.38136,2.53186 -2.53304,0 -7.23885,1.35565 -11.21567,3.23101 -5.44651,2.56843 -9.35175,6.55605 -10.93726,11.168 l -0.60049,1.74672 z m 105.48894,-20.88155 c -0.27139,-0.3443 -1.554,-2.69648 -2.85024,-5.22708 -1.29624,-2.53059 -3.27012,-5.63866 -4.38639,-6.90682 -3.07209,-3.49008 -4.97525,-4.24535 -11.9122,-4.72737 -6.98271,-0.48519 -8.84632,-1.32435 -10.49234,-4.72457 -2.14448,-4.42991 -0.55584,-11.25707 2.75877,-11.85575 1.20877,-0.21833 1.30332,-0.3269 0.54509,-0.62599 -1.92418,-0.759 -12.63684,-0.3287 -21.26341,0.85409 -4.87757,0.66877 -10.55849,1.35676 -12.62426,1.52887 -4.76596,0.39709 -13.28739,-0.40798 -18.64178,-1.76121 -3.94656,-0.99742 -14.09027,-5.56907 -14.75952,-6.65193 -0.20298,-0.32843 0.0269,-0.36734 0.64249,-0.10876 0.5272,0.22144 2.96017,0.92468 5.4066,1.56276 10.99616,2.86801 18.51284,3.35976 38.62001,2.52657 15.61543,-0.64707 21.33867,0.32382 32.30106,5.47953 l 3.75594,1.76645 -1.75277,-1.59992 c -3.89424,-3.55465 -11.32715,-7.70113 -16.11693,-8.99088 -4.90736,-1.32142 -10.92398,-1.99618 -22.14789,-2.48388 -6.6356,-0.28833 -14.36444,-0.8637 -17.17519,-1.27859 -6.21843,-0.91791 -16.27584,-3.60864 -22.63259,-6.05505 l -4.70663,-1.81136 1.95228,-1.20023 c 1.07375,-0.66013 3.8678,-2.15083 6.209,-3.312684 4.04837,-2.00904 4.46509,-2.10969 8.51346,-2.05632 4.70556,0.062 24.96256,3.666004 34.66063,6.166554 17.55178,4.52553 27.56128,9.63735 35.92044,18.34444 7.89021,8.21863 11.43184,15.72908 13.04438,27.66215 0.30869,2.28429 0.4213,4.59419 0.25025,5.13311 -0.35354,1.1139 -2.34135,1.33948 -3.11826,0.35387 z M 282.19002,88.665186 c 21.02303,-7.30561 29.00681,-12.16577 45.30468,-27.57938 6.63939,-6.27916 15.93596,-14.02048 16.83723,-14.02048 0.22835,0 -0.4951,0.95776 -1.60766,2.12836 -1.11257,1.1706 -4.82153,5.70818 -8.24214,10.08351 -11.04036,14.12182 -18.20313,20.77403 -27.50293,25.54252 -8.05217,4.12876 -15.15521,5.82765 -24.19593,5.78713 l -6.10196,-0.0274 z"
         id="path8" /><text
         xml:space="preserve"
         style="font-style:normal;font-variant:normal;font-weight:normal;font-stretch:normal;font-size:96px;font-family:Cookie;-inkscape-font-specification:Cookie;opacity:1;fill:#ff43a4;fill-opacity:1;fill-rule:nonzero"
         x="36.928226"
         y="428.07999"
         id="text1"><tspan
           sodipodi:role="line"
           id="tspan1"
           x="36.928226"
           y="428.07999"
           style="font-size:96px">Gislaine Studio </tspan></text></g></g></svg>
